<svg xmlns="http://www.w3.org/2000/svg"
width="256" height="256"  viewBox="-35 -35 370 370" fill="#229966" background="#229966" >

<defs>
    <clipPath id="myClip">
      <rect x="-35" y="-35" width="370" height="370" rx="100" ry="100"></rect>
    </clipPath>
  </defs> 
<g clip-path="url(#myClip)">
<rect width="300" height="300" fill="#444"></rect>
<rect width="100" height="100" x="50" y="50" fill="#fff" opacity="0.1"></rect>
<rect width="100" height="100" x="250" y="50" fill="#fff" opacity="0.1"></rect>
<rect width="100" height="100" x="150" y="150" fill="#fff" opacity="0.1"></rect>
<rect width="100" height="100" x="-50" y="150" fill="#fff" opacity="0.1"></rect>
<rect width="100" height="100" x="-50" y="-50" fill="#fff" opacity="0.1"></rect>
<rect width="100" height="100" x="150" y="-50" fill="#fff" opacity="0.1"></rect>

<rect width="100" height="100" x="50" y="250" fill="#fff" opacity="0.1"></rect>
<rect width="100" height="100" x="250" y="250" fill="#fff" opacity="0.1"></rect>


<path d="M100,100 l0,60 q 0,40 ,-40,40 l -50,0" stroke="#39f" fill="none" stroke-width="24" stroke-linecap="round" stroke-linejoin="round"></path>
<circle cx="100" cy="100" r="35" fill="#39f"/>
<circle cx="100" cy="100" r="15" fill="#fff"/>
<circle cx="100" cy="100" r="5" fill="#444"/>

 <path d="M200,200 l0,-60 q 0,-40,40,-40 q -40,0,-40,-40 l0,100 l0,-200 l0,140 l100,0" stroke="#f93" fill="none" stroke-width="24" stroke-linecap="round" stroke-linejoin="round"></path>
<circle cx="200" cy="200" r="35" fill="#f93"/>
<circle cx="200" cy="200" r="15" fill="#fff"/>
<circle cx="200" cy="200" r="5" fill="#444"/> 

<circle cx="150" cy="150" r="200" stroke="#000" opacity="0.1" stroke-width="160" fill="none"/>
<circle cx="150" cy="150" r="200" stroke="#3a7" stroke-width="135" fill="none" />
<circle cx="150" cy="150" r="200" stroke="#296" stroke-width="105" fill="none" />

</g>



</svg>